<svg xmlns="http://www.w3.org/2000/svg" viewBox="0 0 64 64" fill="none">
  <defs>
    <linearGradient id="ring" x1="10" y1="8" x2="54" y2="56" gradientUnits="userSpaceOnUse">
      <stop stop-color="#34d399" offset="0" />
      <stop stop-color="#22c55e" offset="0.45" />
      <stop stop-color="#38bdf8" offset="1" />
    </linearGradient>
    <radialGradient id="core" cx="0" cy="0" r="1" gradientUnits="userSpaceOnUse" gradientTransform="translate(24 20) rotate(45) scale(52 48)">
      <stop stop-color="#0f172a" stop-opacity="0.0" />
      <stop offset="1" stop-color="#0b1220" stop-opacity="0.25" />
    </radialGradient>
  </defs>

  <!-- Outer mark -->
  <rect x="8" y="8" width="48" height="48" rx="16" fill="url(#core)" />
  <circle cx="32" cy="32" r="20" stroke="url(#ring)" stroke-width="3.5" opacity="0.95" />

  <!-- Leaf + globe hint -->
  <path
    d="M38.5 21.5C29.5 23.2 25 31.3 23.8 37.1C23.5 38.4 24.6 39.7 26 39.4C32.1 38.2 40.2 34 41.8 25.8C42.1 24.4 41 21.2 38.5 21.5Z"
    fill="#052e16"
    opacity="0.9"
  />
  <path
    d="M27.5 37.5C31.8 30.4 36 26.4 40.8 25.1"
    stroke="#bbf7d0"
    stroke-width="2.1"
    stroke-linecap="round"
    opacity="0.75"
  />

  <!-- Small globe arcs -->
  <path
    d="M23 33.5C26.2 38.4 31.2 40.8 37.5 39.6"
    stroke="#38bdf8"
    stroke-opacity="0.55"
    stroke-width="2"
    stroke-linecap="round"
  />
  <path
    d="M20.8 30.2C23.1 26 27 23.2 32 22.6"
    stroke="#34d399"
    stroke-opacity="0.55"
    stroke-width="2"
    stroke-linecap="round"
  />

  <!-- Monogram -->
  <text
    x="32"
    y="39"
    text-anchor="middle"
    font-family="ui-sans-serif, system-ui, -apple-system, Segoe UI, Roboto, Arial"
    font-size="16"
    font-weight="900"
    fill="#eafff5"
    opacity="0.95"
    letter-spacing="0.5"
  >
    SG
  </text>
</svg>

